#!OML:ASF H:\ManfredETheater\Project 1\Capture day 1\Session 1\subject.ASF
:FULLY-SPECIFIED
:DEGREES
153
root 1.10714 17.9092 -15.2539 -176.002 -6.98277 178.002
lowerback 1.55941 -0.324884 -0.836791
upperback -4.38642 -0.556726 1.97209
thorax -5.38631 -0.269102 2.55647
lowerneck -17.0415 -2.63654 -3.85617
upperneck 18.0613 -2.99559 0.715116
head 8.50951 -1.69436 0.494782
rclavicle 1.02374e-014 -3.18055e-015
rhumerus -37.7902 -13.2816 -78.5858
rradius 24.6892
rwrist 14.2657
rhand -18.672 -9.68054
rfingers 7.12502
rthumb 7.62176 -39.5232
lclavicle 1.02374e-014 -3.18055e-015
lhumerus -41.7667 10.1097 81.3495
lradius 38.6991
lwrist -7.60341
lhand -14.7957 7.95677
lfingers 7.12502
lthumb 11.3618 37.629
rfemur -13.2048 1.00603 23.0594
rtibia 32.7021
rfoot -16.9974 -14.4416
rtoes -4.4676
lfemur -18.7197 -7.42595 -21.1331
ltibia 39.6183
lfoot -19.6178 -3.88275
ltoes 9.00503
154
root 1.10527 17.9075 -15.2875 -175.861 -6.96798 178.048
lowerback 1.55041 -0.323525 -0.786196
upperback -4.38055 -0.552752 1.97848
thorax -5.37542 -0.269419 2.53421
lowerneck -17.0152 -2.63024 -3.84047
upperneck 18.0353 -2.98416 0.679137
head 8.49497 -1.69148 0.48201
rclavicle 1.64991e-014 -3.33958e-014
rhumerus -38.0058 -13.3178 -78.5056
rradius 24.5807
rwrist 14.5707
rhand -18.481 -9.58733
rfingers 7.12502
rthumb 7.80614 -39.4232
lclavicle 1.64991e-014 -3.33958e-014
lhumerus -41.6487 9.66947 81.7455
lradius 39.5869
lwrist -7.15902
lhand -15.0103 7.90726
lfingers 7.12502
lthumb 11.1548 37.5908
rfemur -13.2175 1.03508 23.1235
rtibia 32.6547
rfoot -17.0734 -14.485
rtoes -4.55879
lfemur -18.7728 -7.46687 -21.078
ltibia 39.6541
lfoot -19.7413 -3.79539
ltoes 8.99165
155
root 1.1034 17.9057 -15.32 -175.724 -6.94961 178.087
lowerback 1.54316 -0.324032 -0.746924
upperback -4.3732 -0.551563 1.98688
thorax -5.36377 -0.270539 2.52058
lowerneck -16.991 -2.6227 -3.8278
upperneck 18.0103 -2.9705 0.64468
head 8.48113 -1.68758 0.470495
rclavicle 5.11871e-015 7.95139e-016
rhumerus -38.2234 -13.305 -78.4494
rradius 24.5653
rwrist 14.6796
rhand -18.2813 -9.51626
rfingers 7.12502
rthumb 7.9988 -39.3449
lclavicle 5.11871e-015 7.95139e-016
lhumerus -41.5333 9.26557 82.1257
lradius 40.4416
lwrist -6.75504
lhand -15.2039 7.89349
lfingers 7.12502
lthumb 10.9681 37.587
rfemur -13.236 1.06311 23.1785
rtibia 32.6192
rfoot -17.1457 -14.5225
rtoes -4.66529
lfemur -18.8203 -7.51599 -21.0306
ltibia 39.6831
lfoot -19.8608 -3.70148
ltoes 8.97504
156
root 1.10145 17.9038 -15.3517 -175.591 -6.92689 178.115
lowerback 1.53717 -0.326522 -0.721041
upperback -4.36471 -0.553436 1.99579
thorax -5.35141 -0.272535 2.51517
lowerneck -16.969 -2.61388 -3.82084
upperneck 17.9874 -2.95464 0.615337
head 8.46855 -1.68252 0.461864
rclavicle 2.0773e-014 4.85035e-014
rhumerus -38.4411 -13.2503 -78.4137
rradius 24.6318
rwrist 14.6152
rhand -18.0744 -9.45811
rfingers 7.12502
rthumb 8.19854 -39.279
lclavicle 2.0773e-014 4.85035e-014
lhumerus -41.4149 8.90192 82.4892
lradius 41.2489
lwrist -6.39487
lhand -15.3885 7.89071
lfingers 7.12502
lthumb 10.79 37.5936
rfemur -13.259 1.08582 23.2204
rtibia 32.5976
rfoot -17.2175 -14.5496
rtoes -4.77943
lfemur -18.8581 -7.57228 -20.9945
ltibia 39.7021
lfoot -19.9778 -3.60274
ltoes 8.94866
157
root 1.09951 17.9019 -15.3826 -175.462 -6.89988 178.134
lowerback 1.52773 -0.331429 -0.709204
upperback -4.35358 -0.558966 2.0047
thorax -5.33403 -0.275717 2.51781
lowerneck -16.9531 -2.60287 -3.81407
upperneck 17.9694 -2.93594 0.587817
head 8.45865 -1.67599 0.454123
rclavicle -7.20594e-015 2.22639e-014
rhumerus -38.6512 -13.1655 -78.3943
rradius 24.7652
rwrist 14.4059
rhand -17.8712 -9.40036
rfingers 7.12502
rthumb 8.39465 -39.2135
lclavicle -7.20594e-015 2.22639e-014
lhumerus -41.2906 8.5772 82.8353
lradius 42.0011
lwrist -6.0757
lhand -15.5678 7.88542
lfingers 7.12502
lthumb 10.6171 37.5972
rfemur -13.2871 1.10583 23.2501
rtibia 32.5897
rfoot -17.2905 -14.5692
rtoes -4.90396
lfemur -18.8864 -7.63375 -20.9686
ltibia 39.71
lfoot -20.0926 -3.50207
ltoes 8.91802
158
root 1.09758 17.9 -15.4128 -175.336 -6.86627 178.142
lowerback 1.51855 -0.338384 -0.713498
upperback -4.34302 -0.567871 2.01338
thorax -5.31717 -0.279857 2.52947
lowerneck -16.9321 -2.58786 -3.80202
upperneck 17.9511 -2.91261 0.555893
head 8.44757 -1.66748 0.444659
rclavicle -9.98893e-015 -1.11319e-014
rhumerus -38.8575 -13.0526 -78.3884
rradius 24.9581
rwrist 14.0753
rhand -17.6677 -9.35686
rfingers 7.12502
rthumb 8.59098 -39.1621
lclavicle -9.98893e-015 -1.11319e-014
lhumerus -41.1672 8.28777 83.1656
lradius 42.6988
lwrist -5.79183
lhand -15.7497 7.8578
lfingers 7.12502
lthumb 10.4416 37.5785
rfemur -13.3191 1.12429 23.2662
rtibia 32.5934
rfoot -17.3634 -14.5799
rtoes -5.02921
lfemur -18.905 -7.69485 -20.9546
ltibia 39.7072
lfoot -20.2057 -3.40157
ltoes 8.88832
159
root 1.09557 17.8981 -15.4424 -175.212 -6.83118 178.137
lowerback 1.50165 -0.349563 -0.73185
upperback -4.33001 -0.582935 2.0203
thorax -5.29291 -0.286505 2.54742
lowerneck -16.9081 -2.56947 -3.78181
upperneck 17.9309 -2.88566 0.517911
head 8.43494 -1.65734 0.432315
rclavicle -7.15625e-015 2.46493e-014
rhumerus -39.052 -12.9248 -78.3913
rradius 25.1976
rwrist 13.661
rhand -17.4708 -9.32263
rfingers 7.12502
rthumb 8.78108 -39.12
lclavicle -7.15625e-015 2.46493e-014
lhumerus -41.0413 8.0236 83.4826
lradius 43.3404
lwrist -5.53564
lhand -15.9311 7.81048
lfingers 7.12502
lthumb 10.2667 37.5399
rfemur -13.3524 1.13371 23.2671
rtibia 32.6063
rfoot -17.4402 -14.5803
rtoes -5.1564
lfemur -18.9144 -7.75432 -20.9544
ltibia 39.6955
lfoot -20.3188 -3.30458
ltoes 8.86453
160
root 1.09351 17.8961 -15.4715 -175.093 -6.79444 178.124
lowerback 1.48054 -0.36417 -0.761476
upperback -4.31841 -0.603147 2.02671
thorax -5.26741 -0.29529 2.57142
lowerneck -16.8742 -2.54711 -3.75624
upperneck 17.9125 -2.85482 0.476097
head 8.42096 -1.64567 0.418369
rclavicle 2.78299e-015 8.74653e-015
rhumerus -39.239 -12.7909 -78.3949
rradius 25.4713
rwrist 13.1942
rhand -17.2842 -9.29739
rfingers 7.12502
rthumb 8.96108 -39.0871
lclavicle 2.78299e-015 8.74653e-015
lhumerus -40.9217 7.77785 83.7901
lradius 43.9288
lwrist -5.30327
lhand -16.1087 7.75423
lfingers 7.12502
lthumb 10.0953 37.4921
rfemur -13.3847 1.13848 23.257
rtibia 32.6253
rfoot -17.5193 -14.5749
rtoes -5.28718
lfemur -18.9159 -7.80412 -20.965
ltibia 39.6775
lfoot -20.4307 -3.216
ltoes 8.85271
161
root 1.09153 17.8941 -15.4997 -174.976 -6.75729 178.105
lowerback 1.45524 -0.383144 -0.798705
upperback -4.30631 -0.629487 2.03331
thorax -5.23858 -0.306837 2.60017
lowerneck -16.8405 -2.52174 -3.72572
upperneck 17.8954 -2.82063 0.431558
head 8.40731 -1.6324 0.403087
rclavicle 6.16232e-015 -1.66979e-014
rhumerus -39.4092 -12.6514 -78.4014
rradius 25.7694
rwrist 12.6941
rhand -17.1242 -9.27398
rfingers 7.12502
rthumb 9.11553 -39.057
lclavicle 6.16232e-015 -1.66979e-014
lhumerus -40.8048 7.54615 84.0898
lradius 44.4673
lwrist -5.08753
lhand -16.2795 7.69313
lfingers 7.12502
lthumb 9.93049 37.4389
rfemur -13.4171 1.14158 23.2408
rtibia 32.6465
rfoot -17.5971 -14.5677
rtoes -5.41832
lfemur -18.9153 -7.84261 -20.9817
ltibia 39.6567
lfoot -20.5405 -3.13655
ltoes 8.85912
162
root 1.08961 17.892 -15.5273 -174.865 -6.7232 178.084
lowerback 1.43022 -0.407529 -0.840556
upperback -4.29495 -0.663228 2.04033
thorax -5.21025 -0.321872 2.63238
lowerneck -16.8056 -2.49182 -3.68716
upperneck 17.8805 -2.78166 0.382952
head 8.39393 -1.61685 0.385696
rclavicle -2.13197e-014 -2.14687e-014
rhumerus -39.5618 -12.5174 -78.4047
rradius 26.0793
rwrist 12.1932
rhand -16.989 -9.25803
rfingers 7.12502
rthumb 9.24598 -39.0353
lclavicle -2.13197e-014 -2.14687e-014
lhumerus -40.6953 7.31748 84.3823
lradius 44.9594
lwrist -4.88879
lhand -16.4228 7.65072
lfingers 7.12502
lthumb 9.79224 37.403
rfemur -13.4445 1.14371 23.222
rtibia 32.6671
rfoot -17.6752 -14.5627
rtoes -5.54429
lfemur -18.9112 -7.86763 -21.0025
ltibia 39.6358
lfoot -20.6472 -3.06873
ltoes 8.8801
163
root 1.08787 17.8899 -15.554 -174.759 -6.68522 178.069
lowerback 1.40263 -0.434414 -0.879097
upperback -4.28305 -0.700152 2.05063
thorax -5.17966 -0.338658 2.66624
lowerneck -16.7695 -2.45993 -3.64956
upperneck 17.8694 -2.7408 0.337885
head 8.38167 -1.60023 0.369851
rclavicle 2.78299e-015 1.03368e-014
rhumerus -39.6947 -12.389 -78.4036
rradius 26.3942
rwrist 11.7087
rhand -16.8891 -9.24
rfingers 7.12502
rthumb 9.34235 -39.013
lclavicle 2.78299e-015 1.03368e-014
lhumerus -40.5975 7.08165 84.6725
lradius 45.4146
lwrist -4.69874
lhand -16.538 7.6159
lfingers 7.12502
lthumb 9.68112 37.3734
rfemur -13.4684 1.15729 23.2108
rtibia 32.6846
rfoot -17.7515 -14.5641
rtoes -5.65926
lfemur -18.907 -7.87747 -21.017
ltibia 39.6179
lfoot -20.7505 -3.00824
ltoes 8.91918
